<svg width="32" height="32" viewBox="0 0 32 32" fill="none" xmlns="http://www.w3.org/2000/svg">
  <!-- Background circle -->
  <circle cx="16" cy="16" r="16" fill="#1a1a1a"/>
  
  <!-- Headphones -->
  <path d="M8 18C8 16.8954 8.89543 16 10 16H12C13.1046 16 14 16.8954 14 18V22C14 23.1046 13.1046 24 12 24H10C8.89543 24 8 23.1046 8 22V18Z" fill="#667eea"/>
  <path d="M18 18C18 16.8954 18.8954 16 20 16H22C23.1046 16 24 16.8954 24 18V22C24 23.1046 23.1046 24 22 24H20C18.8954 24 18 23.1046 18 22V18Z" fill="#667eea"/>
  
  <!-- Headphone band -->
  <path d="M12 18C12 17.4477 12.4477 17 13 17H19C19.5523 17 20 17.4477 20 18V19C20 19.5523 19.5523 20 19 20H13C12.4477 20 12 19.5523 12 19V18Z" fill="#667eea"/>
  
  <!-- Music notes -->
  <circle cx="12" cy="12" r="2" fill="#ff6b6b"/>
  <path d="M12 14L12 16" stroke="#ff6b6b" stroke-width="1.5" stroke-linecap="round"/>
  
  <circle cx="20" cy="12" r="2" fill="#4ecdc4"/>
  <path d="M20 14L20 16" stroke="#4ecdc4" stroke-width="1.5" stroke-linecap="round"/>
  
  <!-- Equalizer bars -->
  <rect x="14" y="8" width="1" height="4" fill="#ffd93d"/>
  <rect x="16" y="6" width="1" height="6" fill="#ffd93d"/>
  <rect x="18" y="8" width="1" height="4" fill="#ffd93d"/>
  
  <!-- Vinyl record -->
  <circle cx="16" cy="16" r="3" fill="#2c3e50"/>
  <circle cx="16" cy="16" r="1" fill="#ecf0f1"/>
  <circle cx="16" cy="16" r="0.5" fill="#2c3e50"/>
</svg>
